<svg width="33" height="36" viewBox="0 0 33 36" fill="none" xmlns="http://www.w3.org/2000/svg">
<rect y="3" width="33" height="33" rx="10" fill="white"/>
<g clip-path="url(#clip0_73_688)">
<path d="M16.3931 19.2256C17.3858 19.2256 18.2453 18.8695 18.9477 18.1671C19.65 17.4648 20.006 16.6054 20.006 15.6127C20.006 14.6202 19.65 13.7608 18.9475 13.0582C18.2451 12.356 17.3857 12 16.3931 12C15.4003 12 14.541 12.356 13.8387 13.0583C13.1364 13.7607 12.7802 14.6201 12.7802 15.6127C12.7802 16.6054 13.1364 17.4649 13.8388 18.1672C14.5412 18.8694 15.4007 19.2256 16.3931 19.2256Z" fill="#FB0101"/>
<path d="M22.7147 23.5343C22.6945 23.242 22.6535 22.9232 22.5932 22.5865C22.5323 22.2473 22.4539 21.9266 22.3601 21.6335C22.2631 21.3306 22.1313 21.0315 21.9683 20.7448C21.7992 20.4472 21.6005 20.1881 21.3776 19.9749C21.1445 19.7519 20.8591 19.5726 20.529 19.4418C20.2001 19.3116 19.8356 19.2457 19.4457 19.2457C19.2926 19.2457 19.1445 19.3085 18.8585 19.4947C18.6825 19.6095 18.4766 19.7423 18.2468 19.8891C18.0503 20.0143 17.7841 20.1316 17.4554 20.2378C17.1346 20.3416 16.8089 20.3942 16.4874 20.3942C16.1659 20.3942 15.8404 20.3416 15.5192 20.2378C15.1908 20.1317 14.9246 20.0144 14.7283 19.8892C14.5007 19.7438 14.2947 19.611 14.1161 19.4946C13.8304 19.3084 13.6822 19.2456 13.5291 19.2456C13.1391 19.2456 12.7747 19.3116 12.4459 19.4419C12.1161 19.5724 11.8306 19.7518 11.5972 19.9751C11.3744 20.1884 11.1756 20.4473 11.0067 20.7448C10.8439 21.0315 10.712 21.3305 10.615 21.6336C10.5213 21.9267 10.4429 22.2473 10.382 22.5865C10.3217 22.9227 10.2807 23.2417 10.2605 23.5346C10.2405 23.8216 10.2305 24.1195 10.2305 24.4204C10.2305 25.2034 10.4794 25.8373 10.9702 26.3048C11.455 26.7661 12.0964 27.0001 12.8765 27.0001H20.0991C20.8791 27.0001 21.5203 26.7662 22.0052 26.3048C22.4961 25.8376 22.745 25.2036 22.745 24.4203C22.7449 24.118 22.7347 23.8199 22.7147 23.5343Z" fill="#FB0101"/>
</g>
<defs>
<clipPath id="clip0_73_688">
<rect width="15" height="15.0001" fill="white" transform="translate(9 12)"/>
</clipPath>
</defs>
</svg>
