<svg width="33" height="36" viewBox="0 0 33 36" fill="none" xmlns="http://www.w3.org/2000/svg">
<rect y="3" width="33" height="33" rx="10" fill="white"/>
<g clip-path="url(#clip0_73_489)">
<path d="M23.997 20.1602C23.8875 21.3862 23.4781 22.5665 22.8048 23.5971C22.1314 24.6278 21.2147 25.4772 20.1355 26.0707C17.7864 27.3621 15.0566 27.2683 12.6432 26.0332C6.34411 22.5019 8.73342 12.4976 15.8315 12.0019C16.0608 11.9867 16.2868 12.0623 16.4605 12.2124C16.6343 12.3625 16.7419 12.575 16.7599 12.8038C16.7779 13.0326 16.7049 13.2593 16.5567 13.4347C16.4085 13.6101 16.1971 13.7201 15.9683 13.7408C14.4691 13.8743 13.082 14.5895 12.1045 15.733C11.127 16.8765 10.6368 18.3572 10.7392 19.8575C11.3775 26.9146 21.4307 27.0781 22.2566 20.0236C22.2724 19.855 22.3366 19.6946 22.4415 19.5617C22.5465 19.4287 22.6876 19.3289 22.848 19.2743C23.0084 19.2196 23.1812 19.2125 23.3455 19.2537C23.5099 19.2949 23.6588 19.3827 23.7744 19.5065C23.8546 19.5943 23.9157 19.6977 23.954 19.8101C23.9923 19.9226 24.0069 20.0418 23.997 20.1602ZM16.4912 14.8125C22.7152 15.0697 22.7178 23.9326 16.4912 24.1898C15.2466 24.1898 14.053 23.6959 13.1729 22.8166C12.2929 21.9373 11.7985 20.7447 11.7985 19.5012C11.7985 18.2576 12.2929 17.065 13.1729 16.1857C14.053 15.3064 15.2466 14.8125 16.4912 14.8125ZM16.2231 16.2861V18.7456C16.095 18.7907 15.9805 18.8674 15.8902 18.9687C15.7999 19.07 15.7368 19.1925 15.7067 19.3247C15.6766 19.457 15.6806 19.5947 15.7182 19.725C15.7559 19.8553 15.826 19.974 15.922 20.0699C16.018 20.1658 16.1367 20.2358 16.2672 20.2735C16.3976 20.3111 16.5354 20.315 16.6678 20.285C16.8002 20.255 16.9228 20.1919 17.0241 20.1016C17.1255 20.0114 17.2023 19.897 17.2474 19.7691H18.9395C19.0106 19.7691 19.0788 19.7408 19.1291 19.6906C19.1794 19.6404 19.2077 19.5722 19.2077 19.5011C19.2077 19.4301 19.1794 19.3619 19.1291 19.3117C19.0788 19.2615 19.0106 19.2332 18.9395 19.2332H17.2474C17.2068 19.1212 17.142 19.0194 17.0577 18.9352C16.9734 18.8509 16.8715 18.7862 16.7594 18.7456V16.286C16.7579 16.216 16.729 16.1493 16.6788 16.1003C16.6287 16.0513 16.5614 16.0238 16.4912 16.0238C16.4211 16.0238 16.3537 16.0513 16.3036 16.1003C16.2535 16.1493 16.2246 16.216 16.2231 16.2861ZM16.4912 19.7691C16.5615 19.7678 16.6285 19.739 16.6778 19.6889C16.727 19.6388 16.7546 19.5714 16.7546 19.5012C16.7546 19.4309 16.727 19.3635 16.6778 19.3134C16.6285 19.2633 16.5615 19.2345 16.4912 19.2332C16.4209 19.2345 16.354 19.2633 16.3047 19.3134C16.2554 19.3635 16.2278 19.4309 16.2278 19.5012C16.2278 19.5714 16.2554 19.6388 16.3047 19.6889C16.354 19.739 16.4209 19.7678 16.4912 19.7691Z" fill="black"/>
</g>
<defs>
<clipPath id="clip0_73_489">
<rect width="15" height="15" fill="white" transform="translate(9 12)"/>
</clipPath>
</defs>
</svg>
