<svg width="37" height="36" viewBox="0 0 37 36" fill="none" xmlns="http://www.w3.org/2000/svg">
<path d="M11.3162 4.86591C14.9444 2.01091 20.0556 2.01092 23.6838 4.86591L30.6559 10.352C33.3592 12.4792 34.7794 15.8465 34.416 19.2672L33.5886 27.0564C33.0483 32.1417 28.7584 36 23.6445 36H11.3555C6.24158 36 1.95169 32.1417 1.41145 27.0564L0.583958 19.2672C0.220565 15.8465 1.64082 12.4792 4.34415 10.352L11.3162 4.86591Z" fill="white"/>
<g clip-path="url(#clip0_73_505)">
<path fill-rule="evenodd" clip-rule="evenodd" d="M9.00001 20.3808C9.00001 21.6188 8.99395 22.0881 9.26189 23.3389C9.57831 24.8163 10.23 26.293 11.1244 27.4812L11.5943 28.0588C11.6336 28.1033 11.6067 28.1235 11.6831 28.1235C11.939 28.1235 12.56 27.8747 12.7781 27.7875C13.5631 27.4738 14.0485 27.222 14.7668 26.8632C14.9274 26.7831 15.0667 26.6936 15.2206 26.6013C15.3084 26.5488 15.3633 26.5131 15.4397 26.4626C15.5201 26.4091 15.5821 26.3556 15.6696 26.3091C15.366 25.8557 14.7651 25.6955 14.1471 24.2286C13.8361 23.4904 13.5486 22.2321 13.5486 21.1984V20.5083C13.5486 18.929 14.1192 16.9989 15.399 16.2257C15.8685 15.9419 16.4707 15.8318 17.0497 15.8318C17.7599 15.8318 18.2413 16.121 18.5611 16.5178C18.729 16.7265 18.8687 16.9383 19.0172 17.1604L19.477 17.8249C19.5719 17.7795 19.8392 17.7397 19.9775 17.7121L23.6934 16.9561C23.6934 15.7669 22.5704 14.0199 21.6165 13.3093C19.0889 11.427 14.6948 11.6973 12.3015 13.3325C12.1988 13.4025 12.1062 13.4692 12.0043 13.5466C11.8982 13.627 11.8258 13.6967 11.7235 13.7768C11.4677 13.9768 11.366 14.1397 11.2045 14.3056C10.6777 14.8466 10.126 15.8248 9.82504 16.5293C9.76647 16.6663 9.72843 16.7696 9.67222 16.913C9.29421 17.8757 9.00035 19.3013 9.00035 20.3808H9.00001Z" fill="#FB0101"/>
<path fill-rule="evenodd" clip-rule="evenodd" d="M24 29.3503V29.287V25.2443C23.995 25.1012 23.9741 24.9821 23.9744 24.802L23.9748 21.2242C23.9782 20.8805 24.1047 20.9434 23.2592 20.9434L16.1298 20.9178C16.1298 21.8014 16.2065 22.6645 16.2065 23.5498C16.462 23.5498 16.7175 23.5498 16.973 23.5498C17.2618 23.5498 17.4749 23.5232 17.7394 23.5242L18.9152 23.5246C19.0865 23.5256 19.1491 23.4986 19.2983 23.4986C19.1744 24.0308 18.9283 24.5441 18.6675 25.0144C18.4332 25.4368 18.0515 25.9081 17.7074 26.2521C16.9538 27.0058 16.117 27.5679 15.1415 28.0557C14.5332 28.36 13.4588 28.642 13.1141 28.9416C13.7725 28.9965 14.3955 29.0396 15.0826 29.019C15.9106 28.9941 17.2419 28.7932 18.0097 28.4963C18.6877 28.2341 18.8263 28.158 19.3993 27.816C19.6295 27.6787 19.884 27.479 20.0846 27.3003C20.4623 26.964 20.9944 26.3723 21.2405 26.2073C21.2405 26.7567 21.2661 27.2374 21.2661 27.7662C21.2661 28.2943 21.2661 28.8225 21.2661 29.3506H24.0004L24 29.3503Z" fill="#FB0101"/>
</g>
<defs>
<clipPath id="clip0_73_505">
<rect width="15" height="17.3503" fill="white" transform="translate(9 12)"/>
</clipPath>
</defs>
</svg>
