<svg width="40" height="36" viewBox="0 0 40 36" fill="none" xmlns="http://www.w3.org/2000/svg">
<rect x="3.49039" y="3" width="33" height="33" rx="10" fill="white"/>
<g clip-path="url(#clip0_73_483)">
<path d="M18.6641 22.7013C19.3729 23.4094 20.6079 23.4094 21.316 22.7013L25.6154 18.4019V14.5C25.6154 13.1213 24.4941 12 23.1154 12H16.8654C15.4866 12 14.3654 13.1213 14.3654 14.5V18.4019L18.6641 22.7013ZM17.4904 14.5H22.4904C23.3079 14.5038 23.3073 15.7469 22.4904 15.75H17.4904C16.6729 15.7463 16.6735 14.5038 17.4904 14.5ZM17.4904 17H21.2404C22.0579 17.0038 22.0573 18.2469 21.2404 18.25H17.4904C16.6729 18.2463 16.6735 17.0038 17.4904 17ZM27.1779 18.6063C27.3754 19.0219 27.4904 19.4763 27.4904 19.9419V23.8744C27.4904 25.5975 26.0885 26.9994 24.3654 26.9994H15.6154C13.8923 26.9994 12.4904 25.5975 12.4904 23.8744V19.9419C12.4904 19.4756 12.6054 19.0219 12.8029 18.6063L17.781 23.585C18.9448 24.7969 21.0373 24.7975 22.2004 23.585L27.1779 18.6063Z" fill="black"/>
</g>
<defs>
<clipPath id="clip0_73_483">
<rect width="15" height="15" fill="white" transform="translate(12.4904 12)"/>
</clipPath>
</defs>
</svg>
