<?xml version="1.0" encoding="UTF-8"?>
<!DOCTYPE svg PUBLIC "-//W3C//DTD SVG 1.1//EN" "http://www.w3.org/Graphics/SVG/1.1/DTD/svg11.dtd">
<svg xmlns="http://www.w3.org/2000/svg" version="1.1" width="512px" height="512px" style="shape-rendering:geometricPrecision; text-rendering:geometricPrecision; image-rendering:optimizeQuality; fill-rule:evenodd; clip-rule:evenodd" xmlns:xlink="http://www.w3.org/1999/xlink">
<g><path style="opacity:0.936" fill="#000000" d="M 47.5,-0.5 C 116.167,-0.5 184.833,-0.5 253.5,-0.5C 275.802,5.13524 289.802,19.1352 295.5,41.5C 329.835,41.3333 364.168,41.5 398.5,42C 410.122,43.6232 417.289,50.1232 420,61.5C 420.5,107.499 420.667,153.499 420.5,199.5C 448.169,199.333 475.835,199.5 503.5,200C 504.333,200.833 505.167,201.667 506,202.5C 506.667,254.833 506.667,307.167 506,359.5C 500.638,382.861 486.138,396.694 462.5,401C 407.501,401.5 352.501,401.667 297.5,401.5C 297.667,421.169 297.5,440.836 297,460.5C 294.126,487.532 279.626,504.532 253.5,511.5C 184.833,511.5 116.167,511.5 47.5,511.5C 24.3994,505.565 10.2327,490.898 5,467.5C 4.33333,326.167 4.33333,184.833 5,43.5C 10.2327,20.1021 24.3994,5.43539 47.5,-0.5 Z M 55.5,13.5 C 119.168,13.3333 182.834,13.5 246.5,14C 263.178,16.3315 274.511,25.3315 280.5,41C 240.795,41.0294 201.128,41.696 161.5,43C 150.089,47.5925 144.422,56.0925 144.5,68.5C 137.825,68.3337 131.158,68.5004 124.5,69C 121.634,70.3929 120.301,72.7262 120.5,76C 120.301,79.2738 121.634,81.6071 124.5,83C 131.158,83.4996 137.825,83.6663 144.5,83.5C 144.333,172.167 144.5,260.834 145,349.5C 151.165,379.331 169.332,396.498 199.5,401C 227.165,401.5 254.831,401.667 282.5,401.5C 282.5,405.5 282.5,409.5 282.5,413.5C 194.833,413.5 107.167,413.5 19.5,413.5C 19.5,303.5 19.5,193.5 19.5,83.5C 36.8365,83.6666 54.1699,83.4999 71.5,83C 75.749,79.6234 76.5823,75.4567 74,70.5C 73.2496,69.8742 72.4162,69.3742 71.5,69C 54.1699,68.5001 36.8365,68.3334 19.5,68.5C 14.8442,38.7277 26.8442,20.3944 55.5,13.5 Z M 167.5,56.5 C 244.167,56.3333 320.834,56.5 397.5,57C 400.102,57.8834 402.269,59.3834 404,61.5C 405.326,160.11 405.993,258.777 406,357.5C 407.689,368.376 412.189,377.876 419.5,386C 346.167,386.667 272.833,386.667 199.5,386C 178.303,381.981 165.136,369.481 160,348.5C 159.333,253.5 159.333,158.5 160,63.5C 161.767,60.228 164.267,57.8947 167.5,56.5 Z M 420.5,213.5 C 444.167,213.5 467.833,213.5 491.5,213.5C 491.667,261.834 491.5,310.168 491,358.5C 483.048,381.495 467.215,389.995 443.5,384C 431.233,378.733 423.733,369.566 421,356.5C 420.5,308.834 420.333,261.168 420.5,213.5 Z M 300.5,295.5 C 319.167,295.5 337.833,295.5 356.5,295.5C 356.5,314.167 356.5,332.833 356.5,351.5C 337.833,351.5 319.167,351.5 300.5,351.5C 300.5,332.833 300.5,314.167 300.5,295.5 Z M 19.5,428.5 C 107.167,428.5 194.833,428.5 282.5,428.5C 282.877,441.546 282.377,454.546 281,467.5C 275.736,485.218 263.903,495.051 245.5,497C 182.167,497.667 118.833,497.667 55.5,497C 37.2073,494.375 25.374,484.209 20,466.5C 19.5001,453.838 19.3334,441.171 19.5,428.5 Z"/></g>
<g><path style="opacity:0.88" fill="#000000" d="M 88.5,68.5 C 94.8421,68.3338 101.175,68.5005 107.5,69C 113.092,74.1668 112.759,78.8334 106.5,83C 100.5,83.6667 94.5,83.6667 88.5,83C 81.9022,78.1287 81.9022,73.2953 88.5,68.5 Z"/></g>
<g><path style="opacity:0.886" fill="#000000" d="M 357.5,73.5 C 363.324,73.2767 368.99,74.11 374.5,76C 378.367,79.2488 378.367,82.5821 374.5,86C 371.581,86.5516 368.914,85.8849 366.5,84C 362.428,83.0441 358.595,83.5441 355,85.5C 352.759,89.119 353.592,91.9523 357.5,94C 364.725,96.1927 370.892,100.026 376,105.5C 380.422,114.83 378.922,122.997 371.5,130C 363.967,132.902 356.3,133.235 348.5,131C 344.271,129.605 341.604,126.772 340.5,122.5C 343.54,115.106 347.54,114.606 352.5,121C 356.862,122.923 361.195,122.923 365.5,121C 367.886,118.293 368.052,115.46 366,112.5C 359.947,108.887 353.78,105.387 347.5,102C 341.959,95.4244 341.125,88.2577 345,80.5C 348.473,76.7476 352.64,74.4143 357.5,73.5 Z"/></g>
<g><path style="opacity:0.894" fill="#000000" d="M 175.5,74.5 C 178.518,74.3354 181.518,74.502 184.5,75C 190.636,84.7677 196.136,94.9344 201,105.5C 201.333,95.8333 201.667,86.1667 202,76.5C 205.667,73.8333 209.333,73.8333 213,76.5C 213.667,94.1667 213.667,111.833 213,129.5C 209.657,132.965 205.991,133.299 202,130.5C 196.667,120.5 191.333,110.5 186,100.5C 185.667,110.5 185.333,120.5 185,130.5C 181.667,133.167 178.333,133.167 175,130.5C 174.181,111.76 174.347,93.0932 175.5,74.5 Z"/></g>
<g><path style="opacity:0.918" fill="#000000" d="M 226.5,74.5 C 237.838,74.3335 249.172,74.5001 260.5,75C 261.833,77.6667 261.833,80.3333 260.5,83C 252.507,83.4997 244.507,83.6664 236.5,83.5C 236.5,88.5 236.5,93.5 236.5,98.5C 240.846,98.3343 245.179,98.501 249.5,99C 251.706,101.209 252.04,103.709 250.5,106.5C 245.88,107.493 241.214,107.827 236.5,107.5C 236.5,112.5 236.5,117.5 236.5,122.5C 244.752,122.184 252.919,122.518 261,123.5C 261.978,126.669 261.478,129.503 259.5,132C 249.167,132.667 238.833,132.667 228.5,132C 227.584,131.626 226.75,131.126 226,130.5C 225.181,111.76 225.347,93.0932 226.5,74.5 Z"/></g>
<g><path style="opacity:0.891" fill="#000000" d="M 269.5,74.5 C 271.857,74.3367 274.19,74.5034 276.5,75C 281.201,88.2974 285.368,101.797 289,115.5C 291.789,107.352 294.122,99.0183 296,90.5C 299.333,87.8333 302.667,87.8333 306,90.5C 308.18,98.889 310.514,107.222 313,115.5C 317,102.167 321,88.8333 325,75.5C 328.493,74.0458 331.826,74.3792 335,76.5C 330.934,95.0373 325.434,113.204 318.5,131C 314.219,133.109 310.052,132.942 306,130.5C 304.46,123.798 302.793,117.131 301,110.5C 299.46,117.202 297.793,123.869 296,130.5C 291.667,133.167 287.333,133.167 283,130.5C 277.5,113.333 272,96.1667 266.5,79C 266.957,77.0598 267.957,75.5598 269.5,74.5 Z"/></g>
<g><path style="opacity:0.924" fill="#000000" d="M 185.5,151.5 C 246.168,151.333 306.834,151.5 367.5,152C 373.303,158.121 372.303,162.788 364.5,166C 305.833,166.667 247.167,166.667 188.5,166C 182.659,164.824 180.493,161.324 182,155.5C 183.032,153.973 184.199,152.64 185.5,151.5 Z"/></g>
<g><path style="opacity:0.919" fill="#000000" d="M 188.5,191.5 C 247.168,191.333 305.834,191.5 364.5,192C 372.303,195.212 373.303,199.879 367.5,206C 306.833,206.667 246.167,206.667 185.5,206C 180.7,202.004 180.367,197.67 184.5,193C 186.058,192.79 187.391,192.29 188.5,191.5 Z"/></g>
<g><path style="opacity:0.919" fill="#000000" d="M 185.5,236.5 C 246.168,236.333 306.834,236.5 367.5,237C 373.118,242.535 372.451,247.202 365.5,251C 306.167,251.667 246.833,251.667 187.5,251C 183.723,250.221 181.723,247.888 181.5,244C 181.927,240.977 183.261,238.477 185.5,236.5 Z"/></g>
<g><path style="opacity:0.913" fill="#000000" d="M 186.5,280.5 C 211.836,280.333 237.169,280.5 262.5,281C 269.167,285.667 269.167,290.333 262.5,295C 237.167,295.667 211.833,295.667 186.5,295C 179.899,290.171 179.899,285.338 186.5,280.5 Z"/></g>
<g><path style="opacity:0.926" fill="#000000" d="M 290.5,280.5 C 315.836,280.333 341.169,280.5 366.5,281C 367.931,281.465 369.097,282.299 370,283.5C 371.639,309.104 371.972,334.771 371,360.5C 370.727,362.329 369.893,363.829 368.5,365C 342.587,366.648 316.587,366.981 290.5,366C 288.714,365.215 287.214,364.049 286,362.5C 285.333,336.5 285.333,310.5 286,284.5C 287.397,282.93 288.897,281.596 290.5,280.5 Z M 300.5,295.5 C 300.5,314.167 300.5,332.833 300.5,351.5C 319.167,351.5 337.833,351.5 356.5,351.5C 356.5,332.833 356.5,314.167 356.5,295.5C 337.833,295.5 319.167,295.5 300.5,295.5 Z"/></g>
<g><path style="opacity:0.972" fill="#000000" d="M 185.5,316.5 C 211.502,316.333 237.502,316.5 263.5,317C 267.696,319.981 268.529,323.814 266,328.5C 265.25,329.126 264.416,329.626 263.5,330C 237.5,330.667 211.5,330.667 185.5,330C 181.304,327.019 180.471,323.186 183,318.5C 183.995,317.934 184.828,317.267 185.5,316.5 Z"/></g>
<g><path style="opacity:0.917" fill="#000000" d="M 186.5,351.5 C 211.836,351.333 237.169,351.5 262.5,352C 269.167,356.667 269.167,361.333 262.5,366C 237.167,366.667 211.833,366.667 186.5,366C 179.899,361.171 179.899,356.338 186.5,351.5 Z"/></g>
</svg>
