<?xml version="1.0" encoding="UTF-8"?>
<!DOCTYPE svg PUBLIC "-//W3C//DTD SVG 1.1//EN" "http://www.w3.org/Graphics/SVG/1.1/DTD/svg11.dtd">
<svg xmlns="http://www.w3.org/2000/svg" version="1.1" width="512px" height="512px" style="shape-rendering:geometricPrecision; text-rendering:geometricPrecision; image-rendering:optimizeQuality; fill-rule:evenodd; clip-rule:evenodd" xmlns:xlink="http://www.w3.org/1999/xlink">
<g><path style="opacity:0.923" fill="#000000" d="M 48.5,2.5 C 166.5,2.33333 284.5,2.5 402.5,3C 405.767,2.93693 407.934,4.43693 409,7.5C 409.5,23.1631 409.667,38.8298 409.5,54.5C 428.17,54.3334 446.836,54.5001 465.5,55C 467.81,56.6374 469.31,58.804 470,61.5C 470.995,209.222 470.662,356.889 469,504.5C 467.681,506.487 465.848,507.654 463.5,508C 342.5,508.667 221.5,508.667 100.5,508C 97.1071,507.606 94.9404,505.773 94,502.5C 93.5,481.836 93.3334,461.169 93.5,440.5C 77.8298,440.667 62.1631,440.5 46.5,440C 44.3333,439.167 42.8333,437.667 42,435.5C 41.3333,293.167 41.3333,150.833 42,8.5C 43.1132,5.21857 45.2799,3.21857 48.5,2.5 Z M 58.5,19.5 C 170.167,19.5 281.833,19.5 393.5,19.5C 393.5,31.1667 393.5,42.8333 393.5,54.5C 294.833,54.3333 196.166,54.5 97.5,55C 96.6667,55.8333 95.8333,56.6667 95,57.5C 93.5038,179.752 93.0038,302.086 93.5,424.5C 81.8333,424.5 70.1667,424.5 58.5,424.5C 58.5,289.5 58.5,154.5 58.5,19.5 Z M 110.5,70.5 C 224.833,70.5 339.167,70.5 453.5,70.5C 453.5,210.833 453.5,351.167 453.5,491.5C 339.167,491.5 224.833,491.5 110.5,491.5C 110.5,351.167 110.5,210.833 110.5,70.5 Z M 148.5,119.5 C 185.5,119.5 222.5,119.5 259.5,119.5C 259.5,160.5 259.5,201.5 259.5,242.5C 222.5,242.5 185.5,242.5 148.5,242.5C 148.5,201.5 148.5,160.5 148.5,119.5 Z M 200.5,141.5 C 207.512,140.335 211.846,143.168 213.5,150C 211.847,156.994 207.514,159.661 200.5,158C 193.914,152.457 193.914,146.957 200.5,141.5 Z M 148.5,320.5 C 185.5,320.5 222.5,320.5 259.5,320.5C 259.5,361.5 259.5,402.5 259.5,443.5C 222.5,443.5 185.5,443.5 148.5,443.5C 148.5,402.5 148.5,361.5 148.5,320.5 Z M 200.5,342.5 C 207.512,341.335 211.846,344.168 213.5,351C 210.1,360.315 204.6,361.815 197,355.5C 194.665,350.183 195.832,345.85 200.5,342.5 Z"/></g>
<g><path style="opacity:0.926" fill="#000000" d="M 135.5,102.5 C 181.168,102.333 226.835,102.5 272.5,103C 273.333,103.833 274.167,104.667 275,105.5C 276.652,154.441 276.986,203.441 276,252.5C 275.167,255.333 273.333,257.167 270.5,258C 226.167,258.667 181.833,258.667 137.5,258C 134.667,257.167 132.833,255.333 132,252.5C 131.333,204.167 131.333,155.833 132,107.5C 132.997,105.677 134.164,104.01 135.5,102.5 Z M 148.5,119.5 C 148.5,160.5 148.5,201.5 148.5,242.5C 185.5,242.5 222.5,242.5 259.5,242.5C 259.5,201.5 259.5,160.5 259.5,119.5C 222.5,119.5 185.5,119.5 148.5,119.5 Z M 200.5,141.5 C 193.914,146.957 193.914,152.457 200.5,158C 207.514,159.661 211.847,156.994 213.5,150C 211.846,143.168 207.512,140.335 200.5,141.5 Z"/></g>
<g><path style="opacity:0.96" fill="#000000" d="M 311.5,111.5 C 349.501,111.333 387.501,111.5 425.5,112C 430.609,115.366 431.776,119.866 429,125.5C 428.25,126.126 427.416,126.626 426.5,127C 387.833,127.667 349.167,127.667 310.5,127C 307.484,125.471 306.151,122.971 306.5,119.5C 306.546,115.793 308.213,113.127 311.5,111.5 Z"/></g>
<g><path style="opacity:0.928" fill="#000000" d="M 199.5,125.5 C 220.474,125.306 230.307,135.64 229,156.5C 222.665,173.417 210.832,179.251 193.5,174C 180.431,166.048 176.265,154.881 181,140.5C 184.994,132.658 191.161,127.658 199.5,125.5 Z M 200.5,141.5 C 193.914,146.957 193.914,152.457 200.5,158C 207.514,159.661 211.847,156.994 213.5,150C 211.846,143.168 207.512,140.335 200.5,141.5 Z"/></g>
<g><path style="opacity:0.904" fill="#000000" d="M 312.5,172.5 C 349.835,172.333 387.168,172.5 424.5,173C 428.666,173.985 430.666,176.652 430.5,181C 430.666,185.348 428.666,188.015 424.5,189C 387.167,189.667 349.833,189.667 312.5,189C 308.181,187.877 306.181,185.044 306.5,180.5C 306.635,176.372 308.635,173.706 312.5,172.5 Z"/></g>
<g><path style="opacity:0.926" fill="#000000" d="M 194.5,182.5 C 226.824,179.977 245.49,194.643 250.5,226.5C 249.825,235.677 245.159,238.51 236.5,235C 234.45,229.349 232.95,223.516 232,217.5C 223.378,201.105 210.211,195.605 192.5,201C 180.607,207.586 174.44,217.753 174,231.5C 170.634,236.609 166.134,237.776 160.5,235C 156.979,223.897 158.479,213.397 165,203.5C 172.391,192.903 182.224,185.903 194.5,182.5 Z"/></g>
<g><path style="opacity:0.96" fill="#000000" d="M 310.5,234.5 C 349.168,234.333 387.835,234.5 426.5,235C 429.366,236.393 430.699,238.726 430.5,242C 430.6,245.804 428.934,248.471 425.5,250C 387.5,250.667 349.5,250.667 311.5,250C 306.776,247.565 305.276,243.731 307,238.5C 307.69,236.65 308.856,235.316 310.5,234.5 Z"/></g>
<g><path style="opacity:0.927" fill="#000000" d="M 135.5,303.5 C 181.168,303.333 226.835,303.5 272.5,304C 273.333,304.833 274.167,305.667 275,306.5C 276.652,355.441 276.986,404.441 276,453.5C 275.167,456.333 273.333,458.167 270.5,459C 226.167,459.667 181.833,459.667 137.5,459C 135.714,458.215 134.214,457.049 133,455.5C 131.343,406.583 131.01,357.583 132,308.5C 132.997,306.677 134.164,305.01 135.5,303.5 Z M 148.5,320.5 C 148.5,361.5 148.5,402.5 148.5,443.5C 185.5,443.5 222.5,443.5 259.5,443.5C 259.5,402.5 259.5,361.5 259.5,320.5C 222.5,320.5 185.5,320.5 148.5,320.5 Z M 200.5,342.5 C 195.832,345.85 194.665,350.183 197,355.5C 204.6,361.815 210.1,360.315 213.5,351C 211.846,344.168 207.512,341.335 200.5,342.5 Z"/></g>
<g><path style="opacity:0.96" fill="#000000" d="M 310.5,312.5 C 348.835,312.333 387.168,312.5 425.5,313C 430.069,315.541 431.569,319.375 430,324.5C 429.167,326 428,327.167 426.5,328C 387.833,328.667 349.167,328.667 310.5,328C 305.198,322.881 305.198,317.714 310.5,312.5 Z"/></g>
<g><path style="opacity:0.93" fill="#000000" d="M 198.5,326.5 C 223.649,326.813 233.149,339.146 227,363.5C 217.64,377.074 205.473,380.241 190.5,373C 175.172,359.346 174.838,345.346 189.5,331C 192.592,329.454 195.592,327.954 198.5,326.5 Z M 200.5,342.5 C 195.832,345.85 194.665,350.183 197,355.5C 204.6,361.815 210.1,360.315 213.5,351C 211.846,344.168 207.512,341.335 200.5,342.5 Z"/></g>
<g><path style="opacity:0.907" fill="#000000" d="M 311.5,373.5 C 349.168,373.333 386.835,373.5 424.5,374C 428.666,374.985 430.666,377.652 430.5,382C 430.666,386.348 428.666,389.015 424.5,390C 387.167,390.667 349.833,390.667 312.5,390C 308.181,388.877 306.181,386.044 306.5,381.5C 306.546,377.793 308.213,375.127 311.5,373.5 Z"/></g>
<g><path style="opacity:0.926" fill="#000000" d="M 194.5,383.5 C 226.809,380.971 245.476,395.638 250.5,427.5C 249.696,436.902 245.03,439.569 236.5,435.5C 234.391,431.137 233.224,426.47 233,421.5C 225.252,403.042 211.752,396.542 192.5,402C 180.113,408.255 173.947,418.422 174,432.5C 170.634,437.609 166.134,438.776 160.5,436C 156.439,418.087 161.772,403.421 176.5,392C 182.208,388.31 188.208,385.477 194.5,383.5 Z"/></g>
<g><path style="opacity:0.956" fill="#000000" d="M 309.5,435.5 C 348.501,435.333 387.501,435.5 426.5,436C 429.366,437.393 430.699,439.726 430.5,443C 430.6,446.804 428.934,449.471 425.5,451C 387.5,451.667 349.5,451.667 311.5,451C 308.066,449.471 306.4,446.804 306.5,443C 306.548,440.078 307.548,437.578 309.5,435.5 Z"/></g>
</svg>
