<svg width="25" height="25" viewBox="0 0 25 25" fill="none" xmlns="http://www.w3.org/2000/svg">
<path d="M18.8732 5.42036C18.8501 5.26641 18.6602 5.22461 18.5518 5.22461H16.8479C16.7394 5.22461 16.5496 5.26641 16.5256 5.42319L16.1279 8.25195H19.272L18.8732 5.42036Z" fill="#E30103"/>
<path d="M22.9471 6.38088C22.9468 5.34573 22.6492 4.33244 22.0897 3.46153C21.5302 2.59061 20.7324 1.89872 19.791 1.46816C18.8497 1.03759 17.8045 0.886463 16.7797 1.03275C15.7549 1.17904 14.7938 1.61659 14.0105 2.29336C13.2272 2.97012 12.6548 3.85763 12.3613 4.85031C12.0679 5.84299 12.0657 6.89907 12.3551 7.89294C12.6445 8.88681 13.2133 9.77665 13.9938 10.4566C14.7743 11.1366 15.7337 11.5781 16.7578 11.7285L15.9388 14.8464C15.9228 14.9074 15.9269 14.9719 15.9504 15.0303C15.974 15.0888 16.0158 15.1381 16.0696 15.1709C16.1234 15.2037 16.1864 15.2183 16.2492 15.2125C16.3119 15.2067 16.3711 15.1808 16.418 15.1386C16.5638 15.0075 19.9997 11.9132 21.0669 10.6787C22.332 9.21521 22.9471 7.8094 22.9471 6.38088ZM19.3924 4.23889L20.2404 3.3907C20.2676 3.36349 20.2999 3.34191 20.3355 3.32718C20.371 3.31246 20.4091 3.30488 20.4476 3.30487C20.4861 3.30487 20.5242 3.31245 20.5597 3.32717C20.5953 3.34189 20.6276 3.36347 20.6548 3.39067C20.682 3.41788 20.7035 3.45017 20.7183 3.48572C20.733 3.52126 20.7406 3.55936 20.7406 3.59783C20.7406 3.63631 20.733 3.6744 20.7183 3.70995C20.7036 3.7455 20.682 3.7778 20.6548 3.805L19.8066 4.65334C19.7794 4.68055 19.7471 4.70214 19.7116 4.71687C19.676 4.73159 19.6379 4.73918 19.5995 4.73918C19.561 4.73919 19.5229 4.73161 19.4873 4.71689C19.4518 4.70217 19.4195 4.68059 19.3923 4.65339C19.3651 4.62619 19.3435 4.59389 19.3288 4.55834C19.314 4.5228 19.3064 4.4847 19.3064 4.44622C19.3064 4.36852 19.3373 4.29399 19.3922 4.23904L19.3924 4.23889ZM17.2852 2.58791C17.2852 2.51021 17.316 2.43569 17.371 2.38075C17.4259 2.32581 17.5004 2.29494 17.5781 2.29494C17.6558 2.29494 17.7303 2.32581 17.7853 2.38075C17.8402 2.43569 17.8711 2.51021 17.8711 2.58791V3.80862C17.8711 3.88632 17.8402 3.96083 17.7853 4.01578C17.7303 4.07072 17.6558 4.10158 17.5781 4.10158C17.5004 4.10158 17.4259 4.07072 17.371 4.01578C17.316 3.96083 17.2852 3.88632 17.2852 3.80862V2.58791ZM14.7621 3.39065C14.817 3.33571 14.8915 3.30485 14.9692 3.30485C15.0469 3.30485 15.1214 3.33571 15.1764 3.39065L16.0244 4.23884C16.0793 4.29379 16.1102 4.36832 16.1102 4.44603C16.1101 4.52373 16.0793 4.59826 16.0243 4.6532C15.9694 4.70814 15.8948 4.739 15.8171 4.73899C15.7394 4.73898 15.6649 4.7081 15.61 4.65315L14.762 3.805C14.7348 3.77779 14.7132 3.74549 14.6985 3.70994C14.6838 3.67439 14.6762 3.63629 14.6762 3.59781C14.6762 3.55934 14.6838 3.52124 14.6985 3.48569C14.7133 3.45015 14.7348 3.41785 14.7621 3.39065ZM13.916 6.15237C13.916 6.07467 13.9469 6.00015 14.0018 5.94521C14.0568 5.89026 14.1313 5.8594 14.209 5.8594H15.4297C15.5074 5.8594 15.5819 5.89026 15.6368 5.94521C15.6918 6.00015 15.7227 6.07467 15.7227 6.15237C15.7227 6.23007 15.6918 6.30458 15.6368 6.35953C15.5819 6.41447 15.5074 6.44533 15.4297 6.44533H14.209C14.1313 6.44533 14.0568 6.41447 14.0018 6.35953C13.9469 6.30458 13.916 6.23007 13.916 6.15237ZM20.4102 9.3529C20.41 9.50117 20.351 9.64331 20.2462 9.74815C20.1413 9.85299 19.9992 9.91196 19.8509 9.91213H15.3053C15.1571 9.91196 15.0149 9.85299 14.9101 9.74815C14.8052 9.64331 14.7463 9.50117 14.7461 9.3529V8.8112C14.7463 8.66294 14.8052 8.52079 14.9101 8.41595C15.0149 8.31112 15.1571 8.25214 15.3053 8.25198H15.5359L15.9461 5.33869C16.0084 4.92541 16.379 4.63869 16.8479 4.63869H18.5518C19.0205 4.63869 19.3914 4.92546 19.4531 5.33601L19.8638 8.25261C20.0097 8.25605 20.1485 8.31639 20.2506 8.42074C20.3527 8.5251 20.4099 8.66522 20.4102 8.8112V9.3529ZM20.0195 6.44533C19.9418 6.44533 19.8673 6.41447 19.8124 6.35953C19.7574 6.30458 19.7266 6.23007 19.7266 6.15237C19.7266 6.07467 19.7574 6.00015 19.8124 5.94521C19.8673 5.89026 19.9418 5.8594 20.0195 5.8594H21.1914C21.2691 5.8594 21.3436 5.89026 21.3986 5.94521C21.4535 6.00015 21.4844 6.07467 21.4844 6.15237C21.4844 6.23007 21.4535 6.30458 21.3986 6.35953C21.3436 6.41447 21.2691 6.44533 21.1914 6.44533H20.0195Z" fill="white"/>
<path d="M19.6089 8.83901C19.6048 8.83901 19.6009 8.83804 19.5969 8.83789H15.332V9.32617H19.8242V8.83789H19.6244C19.6191 8.83818 19.614 8.83896 19.6089 8.83901Z" fill="#E30103"/>
<path d="M4.62068 16.8344C5.82371 18.918 7.80457 21.7087 10.41 23.1711C11.3609 23.7048 12.1235 23.9042 12.5958 23.9775C12.7806 24.007 12.9674 24.0223 13.1546 24.0233C13.4788 24.0233 13.7484 23.9696 13.9288 23.8657L15.98 22.6814C16.2958 22.4985 16.5261 22.1979 16.6206 21.8454C16.715 21.4929 16.6658 21.1173 16.4837 20.801L15.1648 18.5168C14.7882 17.8645 13.9242 17.6285 13.278 18.0015L12.1126 18.6744L12.1057 18.6785C12.1013 18.6811 11.6496 18.9406 10.9072 18.7526C10.0955 18.5469 8.8222 17.7722 7.36575 15.2495C6.00017 12.8842 5.93704 11.4417 6.12454 10.6481C6.3178 9.83019 6.80008 9.53526 6.82561 9.52013L6.82693 9.51939L7.99256 8.84649C8.6386 8.47335 8.86658 7.60758 8.49021 6.95592L7.17132 4.67174C6.98729 4.35704 6.68665 4.12755 6.33457 4.03301C5.98248 3.93846 5.60733 3.98648 5.29041 4.16666L3.23919 5.35089C2.96238 5.5107 2.68167 5.9044 2.46897 6.43102C2.29153 6.87047 2.07552 7.62047 2.05442 8.69664C1.99695 11.6489 3.41814 14.7515 4.62068 16.8344Z" fill="white"/>
</svg>
