<?xml version="1.0" encoding="UTF-8"?>
<!DOCTYPE svg PUBLIC "-//W3C//DTD SVG 1.1//EN" "http://www.w3.org/Graphics/SVG/1.1/DTD/svg11.dtd">
<svg xmlns="http://www.w3.org/2000/svg" version="1.1" width="512px" height="512px" style="shape-rendering:geometricPrecision; text-rendering:geometricPrecision; image-rendering:optimizeQuality; fill-rule:evenodd; clip-rule:evenodd" xmlns:xlink="http://www.w3.org/1999/xlink">
<g><path style="opacity:0.947" fill="#000000" d="M 169.5,-0.5 C 282.5,-0.5 395.5,-0.5 508.5,-0.5C 509.5,0.5 510.5,1.5 511.5,2.5C 511.5,79.8333 511.5,157.167 511.5,234.5C 510.373,235.122 509.373,235.955 508.5,237C 395.086,237.996 281.753,237.662 168.5,236C 167.874,235.25 167.374,234.416 167,233.5C 166.333,156.833 166.333,80.1667 167,3.5C 167.662,2.01608 168.496,0.682751 169.5,-0.5 Z M 190.5,13.5 C 289.332,12.3342 388.332,12.1675 487.5,13C 441.862,56.9708 396.529,101.304 351.5,146C 344.442,151.695 337.108,152.361 329.5,148C 283.298,102.964 236.965,58.1302 190.5,13.5 Z M 180.5,22.5 C 215.144,55.8105 249.478,89.4772 283.5,123.5C 249.509,154.656 215.342,185.656 181,216.5C 180.5,151.834 180.333,87.1675 180.5,22.5 Z M 497.5,22.5 C 498.665,86.6654 498.832,150.999 498,215.5C 463.019,185.353 428.185,155.02 393.5,124.5C 428.492,90.841 463.159,56.841 497.5,22.5 Z M 293.5,133.5 C 303.276,142.105 312.943,150.938 322.5,160C 333.821,165.998 345.154,165.998 356.5,160C 365.637,151.864 374.47,143.364 383,134.5C 417.5,164.333 452,194.167 486.5,224C 388.833,224.667 291.167,224.667 193.5,224C 227.029,193.968 260.362,163.801 293.5,133.5 Z"/></g>
<g><path style="opacity:0.969" fill="#000000" d="M 341.5,511.5 C 228.5,511.5 115.5,511.5 2.5,511.5C 1.5,510.5 0.5,509.5 -0.5,508.5C -0.5,431.167 -0.5,353.833 -0.5,276.5C 0.309426,275.531 1.30943,274.698 2.5,274C 115.914,273.004 229.247,273.338 342.5,275C 343.126,275.75 343.626,276.584 344,277.5C 344.667,354.167 344.667,430.833 344,507.5C 343.338,508.984 342.504,510.317 341.5,511.5 Z M 12.5,286.5 C 118.5,286.5 224.5,286.5 330.5,286.5C 330.5,357.167 330.5,427.833 330.5,498.5C 224.5,498.5 118.5,498.5 12.5,498.5C 12.5,427.833 12.5,357.167 12.5,286.5 Z M 55.5,334.5 C 69.5,334.5 83.5,334.5 97.5,334.5C 97.5,350.167 97.5,365.833 97.5,381.5C 83.5,381.5 69.5,381.5 55.5,381.5C 55.5,365.833 55.5,350.167 55.5,334.5 Z"/></g>
<g><path style="opacity:0.915" fill="#000000" d="M 46.5,320.5 C 66.5028,320.333 86.5028,320.5 106.5,321C 107.931,321.465 109.097,322.299 110,323.5C 111.623,345.449 111.956,367.449 111,389.5C 110.654,391.848 109.487,393.681 107.5,395C 86.8333,395.667 66.1667,395.667 45.5,395C 44.6667,394.167 43.8333,393.333 43,392.5C 41.3552,370.255 41.0219,347.922 42,325.5C 43.025,323.313 44.525,321.646 46.5,320.5 Z M 55.5,334.5 C 55.5,350.167 55.5,365.833 55.5,381.5C 69.5,381.5 83.5,381.5 97.5,381.5C 97.5,365.833 97.5,350.167 97.5,334.5C 83.5,334.5 69.5,334.5 55.5,334.5 Z"/></g>
<g><path style="opacity:0.909" fill="#000000" d="M 145.5,320.5 C 193.834,320.333 242.168,320.5 290.5,321C 297.167,325.333 297.167,329.667 290.5,334C 242.167,334.667 193.833,334.667 145.5,334C 140.221,329.503 140.221,325.003 145.5,320.5 Z"/></g>
<g><path style="opacity:0.91" fill="#000000" d="M 145.5,363.5 C 194.168,363.333 242.834,363.5 291.5,364C 297.153,369.728 296.153,374.062 288.5,377C 241.5,377.667 194.5,377.667 147.5,377C 141.468,375.047 139.968,371.213 143,365.5C 143.995,364.934 144.828,364.267 145.5,363.5 Z"/></g>
<g><path style="opacity:0.91" fill="#000000" d="M 147.5,405.5 C 194.835,405.333 242.168,405.5 289.5,406C 296.317,409.322 296.984,413.656 291.5,419C 242.833,419.667 194.167,419.667 145.5,419C 141.876,416.839 140.709,413.672 142,409.5C 143.5,407.531 145.333,406.198 147.5,405.5 Z"/></g>
</svg>
